<svg height="60" viewBox="0 0 60 60" width="60" xmlns="http://www.w3.org/2000/svg"><g fill="none" fill-rule="evenodd"><circle cx="30" cy="30" fill="#ffcd28" r="30"/><path d="m16 32.607 3.939-1.256 24.061 6.196v-16.05l-24.061 6.196-3.939-1.256z" fill="#fff"/><path d="m19 27.393-3-.956v6.17l3-.957zm2 .026v4.205l23 5.923v-16.05zm13.827 9.747c-1.41 2.802-4.744 4.305-8.026 3.426-3.234-.867-5.356-3.763-5.245-6.843l-1.556-.401-6 1.913v-11.478l6 1.913 26-6.696v21.043zm-1.997-.514-9.277-2.39c.108 2.045 1.576 3.901 3.743 4.482 2.201.59 4.436-.321 5.534-2.092z" fill="#212223" fill-rule="nonzero"/></g></svg>