<svg height="60" viewBox="0 0 60 60" width="60" xmlns="http://www.w3.org/2000/svg"><g fill="none" fill-rule="evenodd"><circle cx="30" cy="30" fill="#ffcd28" r="30"/><g fill="#fff" stroke="#1e1e1e" stroke-width="2" transform="translate(18 12)"><path d="m6.193 19.422-3.467 12.938 3.28-.648 2.516 2.2 3.466-12.937z"/><path d="m11.92 20.865 3.467 12.937 2.516-2.2 3.28.647-3.467-12.937z"/><circle cx="12" cy="12" r="12"/><path d="m12.05 15.887-3.329 1.52a.05.05 0 0 1 -.07-.051l.417-3.637-1.936-2.11a.5.5 0 0 1 .269-.828l2.806-.569 1.8-3.187a.05.05 0 0 1 .087 0l1.8 3.187 2.807.57a.5.5 0 0 1 .269.827l-1.936 2.11.417 3.637a.05.05 0 0 1 -.07.05l-3.33-1.52z"/></g></g></svg>