<svg width="102" height="102" viewBox="0 0 102 102" fill="none" xmlns="http://www.w3.org/2000/svg">
<mask id="mask0" mask-type="alpha" maskUnits="userSpaceOnUse" x="0" y="0" width="102" height="102">
<rect width="102" height="102" rx="4" fill="#E4E5E6"/>
</mask>
<g mask="url(#mask0)">
<rect width="102" height="102" rx="4" fill="#E4E5E6"/>
<path d="M46.0334 19.1879C50.9932 18.1355 56.5227 18.6747 60.7805 21.6603C62.9543 23.1549 64.3651 25.6482 64.7704 28.2715C65.3944 32.7898 65.7369 37.4261 64.9315 41.9462C65.7454 42.2705 66.6407 42.6606 66.851 43.6315C67.246 46.3363 66.1998 49.0116 65.118 51.4338C64.6771 52.5088 63.7174 53.0879 62.6186 53.237C62.6966 55.9036 62.3812 59.1944 59.8174 60.6145L59.953 64.0908C60.8178 64.2295 61.6724 64.363 62.5355 64.4983C62.7119 65.5282 62.8017 66.5667 63.0374 67.5879C68.1651 71.6243 75.1834 71.5342 80.3958 75.4162C81.8609 76.5016 83.3412 77.8557 83.777 79.7283C85.9711 89.3857 88.8198 98.9565 90 108.822C63.9972 108.891 37.9977 108.822 12 108.822C13.5464 100.564 15.1641 92.3055 16.892 84.0802C17.5312 80.5692 20.3206 78.0673 23.1014 76.1808C27.3033 73.2403 32.2105 71.6382 36.6056 69.0548C37.701 68.4375 38.8167 67.8584 39.946 67.3071C40.0698 66.3361 40.1716 65.3825 40.2547 64.4237C41.2551 64.3058 42.2606 64.1758 43.2627 64.0475C43.1322 62.9551 42.9914 61.8559 42.8117 60.767C40.1902 59.2413 39.4747 55.999 39.3695 53.152C38.7116 52.9838 38.0588 52.8001 37.4161 52.6007C36.7294 50.5773 36.704 48.41 36.102 46.3641C35.6001 44.8261 36.3174 43.3125 37.4857 42.3416C36.9142 40.4447 35.8833 38.6554 35.8917 36.6199C35.8273 32.7136 35.7663 28.535 37.6145 24.9858C38.2792 23.5988 39.7816 22.9781 41.2263 22.8844C41.3229 20.3964 44.1597 19.7982 46.0334 19.174V19.1862V19.1879Z" fill="#CCCDCE"/>
</g>
</svg>
